<svg xmlns="http://www.w3.org/2000/svg" viewBox="0 0 244.5 33.2" xml:space="preserve"><path d="M5.5 13.5h8.2v4.3H5.5v10.1h10.3v4.6H.2V.4h15.6V5H5.5zm27.3 19L25.4 9.3v23.2h-5.3V.4H27l6.4 21V.4h5.4v32.1zm30.6-17.6v17.6h-4l-.4-2.9c-.9 1.8-2.6 3.2-5.6 3.2-10.8 0-10.6-13.8-10.6-17.1 0-7 1.7-15.8 10.9-15.8 6.5 0 9.6 3.4 9.7 9.1l-5.9 1.2c.6-2.5-.4-5.8-4-5.9-3.9 0-4.7 6.3-4.7 11.6 0 4.7.4 12.4 4.6 12.5 4 0 4.8-6.3 4.8-9.4H54v-4.2zM67.3.4h5.3v27.5h9.9v4.6H67.3zm19.1 32.1V.4h5.4v32.1zm19.3-28.1c-3.3 0-3.9 3-3.9 3.6 0 3.1 1.8 4.4 5.1 6.3 3.6 2.1 8 5.4 8 10.7 0 4.1-3.6 7.9-9.7 7.9-6.4 0-9.4-4.5-9.7-10l5.9-1.6c-.7 3.2 1.1 6.8 3.8 6.8 3.4 0 3.9-2.6 3.9-3.2 0-2.7-1.8-4.4-5.1-6.3-3.6-2.1-8-5.4-8-10.7 0-4.1 3.6-7.9 9.3-7.9 6.5 0 9.6 3.7 9.7 9.4l-5.9 1.2c.7-2.6-.2-6.2-3.4-6.2m28 28.1V17.7h-9.4v14.7h-5.4V.4h5.4v13h9.4V.4h5.4v32.1zm32.4 0V17.7h-9.4v14.7h-5.4V.4h5.4v13h9.4V.4h5.4v32.1zm20.1.4c-10.8 0-10.8-13.8-10.8-17.1C175.4 9 177.3 0 186.2 0c10 0 10.8 10.7 10.8 15.8.1 7-1.3 17.1-10.8 17.1m5.1-16.9c0-5.3-1.3-11.3-5-11.4-3.8.1-4.7 6.1-4.7 11.4 0 4.7.5 12.3 4.7 12.3 4.1-.1 5-7.6 5-12.3m27.5 16.5V10.1l-4.1 17.6h-4.3l-4-17.6v22.4H201V.4h7l4.6 19.3L217.2.4h7v32.1zm15.4-19h8.2v4.3h-8.2v10.1h10.3v4.6H229V.4h15.6V5h-10.3z" fill="#02108e"></path></svg>